<svg width="48" height="48" viewBox="0 0 48 48" fill="none" xmlns="http://www.w3.org/2000/svg">
  <g clip-path="url(#clip0_102_39)">
    <path d="M41.42 15.96L32.06 6.6C31.68 6.22 31.16 6 30.64 6H17.36C16.84 6 16.32 6.22 15.96 6.58L6.58 15.96C6.22 16.32 6 16.84 6 17.36V30.62C6 31.16 6.22 31.66 6.58 32.04L15.94 41.4C16.32 41.78 16.84 42 17.36 42H30.62C31.16 42 31.66 41.78 32.04 41.42L41.4 32.06C41.78 31.68 41.98 31.18 41.98 30.64V17.36C42 16.84 41.78 16.32 41.42 15.96ZM38 29.8L29.8 38H18.2L10 29.8V18.2L18.2 10H29.8L38 18.2V29.8Z" fill="currentColor" />
    <path d="M24 34C25.1046 34 26 33.1046 26 32C26 30.8954 25.1046 30 24 30C22.8954 30 22 30.8954 22 32C22 33.1046 22.8954 34 24 34Z" fill="currentColor" />
    <path d="M24 14C22.9 14 22 14.9 22 16V26C22 27.1 22.9 28 24 28C25.1 28 26 27.1 26 26V16C26 14.9 25.1 14 24 14Z" fill="currentColor" />
  </g>
  <defs>
    <clipPath id="clip0_102_39">
      <rect width="48" height="48" fill="white" />
    </clipPath>
  </defs>
</svg>
