<svg width="12" height="12" viewBox="0 0 12 12" fill="none" xmlns="http://www.w3.org/2000/svg">
<path d="M12 10.6667V1.33333C12 0.6 11.4 0 10.6667 0H1.33333C0.6 0 0 0.6 0 1.33333V10.6667C0 11.4 0.6 12 1.33333 12H10.6667C11.4 12 12 11.4 12 10.6667ZM3.93333 7.32L5.33333 9.00667L7.4 6.34667C7.53333 6.17333 7.8 6.17333 7.93333 6.35333L10.2733 9.47333C10.44 9.69333 10.28 10.0067 10.0067 10.0067H2.01333C1.73333 10.0067 1.58 9.68667 1.75333 9.46667L3.41333 7.33333C3.54 7.16 3.79333 7.15333 3.93333 7.32Z" fill="#4C4C4C"/>
</svg>
