<svg width="48" height="48" viewBox="0 0 48 48" fill="none" xmlns="http://www.w3.org/2000/svg">
  <g clip-path="url(#clip0_102_32)">
    <path d="M22 14H26V18H22V14ZM24 34C25.1 34 26 33.1 26 32V24C26 22.9 25.1 22 24 22C22.9 22 22 22.9 22 24V32C22 33.1 22.9 34 24 34ZM24 4C12.96 4 4 12.96 4 24C4 35.04 12.96 44 24 44C35.04 44 44 35.04 44 24C44 12.96 35.04 4 24 4ZM24 40C15.18 40 8 32.82 8 24C8 15.18 15.18 8 24 8C32.82 8 40 15.18 40 24C40 32.82 32.82 40 24 40Z" fill="currentColor" />
  </g>
  <defs>
    <clipPath id="clip0_102_32">
      <rect width="48" height="48" fill="white" />
    </clipPath>
  </defs>
</svg>
