<svg width="12" height="12" viewBox="0 0 12 12" fill="none" xmlns="http://www.w3.org/2000/svg">
<path d="M10.2956 6.588C10.3196 6.396 10.3376 6.204 10.3376 6C10.3376 5.796 10.3196 5.604 10.2956 5.412L11.5616 4.422C11.6756 4.332 11.7056 4.17 11.6336 4.038L10.4336 1.962C10.3616 1.83 10.1996 1.782 10.0676 1.83L8.5736 2.43C8.2616 2.19 7.9256 1.992 7.5596 1.842L7.3316 0.252C7.3136 0.108 7.1876 0 7.0376 0H4.6376C4.4876 0 4.3616 0.108 4.3436 0.252L4.1156 1.842C3.7496 1.992 3.4136 2.196 3.1016 2.43L1.6076 1.83C1.4696 1.776 1.3136 1.83 1.2416 1.962L0.0415989 4.038C-0.0364011 4.17 -0.000400981 4.332 0.113599 4.422L1.3796 5.412C1.3556 5.604 1.3376 5.802 1.3376 6C1.3376 6.198 1.3556 6.396 1.3796 6.588L0.113599 7.578C-0.000400981 7.668 -0.0304011 7.83 0.0415989 7.962L1.2416 10.038C1.3136 10.17 1.4756 10.218 1.6076 10.17L3.1016 9.57C3.4136 9.81 3.7496 10.008 4.1156 10.158L4.3436 11.748C4.3616 11.892 4.4876 12 4.6376 12H7.0376C7.1876 12 7.3136 11.892 7.3316 11.748L7.5596 10.158C7.9256 10.008 8.2616 9.804 8.5736 9.57L10.0676 10.17C10.2056 10.224 10.3616 10.17 10.4336 10.038L11.6336 7.962C11.7056 7.83 11.6756 7.668 11.5616 7.578L10.2956 6.588ZM5.8376 8.1C4.6796 8.1 3.7376 7.158 3.7376 6C3.7376 4.842 4.6796 3.9 5.8376 3.9C6.9956 3.9 7.9376 4.842 7.9376 6C7.9376 7.158 6.9956 8.1 5.8376 8.1Z" fill="#4C4C4C"/>
</svg>
