<svg width="35" height="36" viewBox="0 0 35 36" fill="currentColor" xmlns="http://www.w3.org/2000/svg">
  <path d="M25 23H23.42L22.86 22.46C25.26 19.66 26.5 15.84 25.82 11.78C24.88 6.22 20.24 1.78 14.64 1.1C6.18004 0.06 -0.919962 7.18 0.100038 15.64C0.780038 21.24 5.22004 25.88 10.78 26.82C14.84 27.5 18.66 26.26 21.46 23.86L22 24.42V26L30.52 34.5C31.34 35.32 32.66 35.32 33.48 34.5L33.5 34.48C34.32 33.66 34.32 32.34 33.5 31.52L25 23ZM13 23C8.02004 23 4.00004 18.98 4.00004 14C4.00004 9.02 8.02004 5 13 5C17.98 5 22 9.02 22 14C22 18.98 17.98 23 13 23ZM13 9C12.44 9 12 9.44 12 10V13H9.00004C8.44004 13 8.00004 13.44 8.00004 14C8.00004 14.56 8.44004 15 9.00004 15H12V18C12 18.56 12.44 19 13 19C13.56 19 14 18.56 14 18V15H17C17.56 15 18 14.56 18 14C18 13.44 17.56 13 17 13H14V10C14 9.44 13.56 9 13 9Z" fill="currentColor" />
</svg>
