<svg width="36" height="36" viewBox="0 0 36 36" fill="currentColor" xmlns="http://www.w3.org/2000/svg">
  <path d="M26 23H24.42L23.86 22.46C26.26 19.66 27.5 15.84 26.82 11.78C25.88 6.22 21.24 1.78 15.64 1.1C7.18003 0.06 0.0600305 7.18 1.10003 15.64C1.78003 21.24 6.22003 25.88 11.78 26.82C15.84 27.5 19.66 26.26 22.46 23.86L23 24.42V26L31.52 34.5C32.34 35.32 33.66 35.32 34.48 34.5L34.5 34.48C35.32 33.66 35.32 32.34 34.5 31.52L26 23ZM14 23C9.02003 23 5.00003 18.98 5.00003 14C5.00003 9.02 9.02003 5 14 5C18.98 5 23 9.02 23 14C23 18.98 18.98 23 14 23ZM10 13H18C18.56 13 19 13.44 19 14C19 14.56 18.56 15 18 15H10C9.44003 15 9.00003 14.56 9.00003 14C9.00003 13.44 9.44003 13 10 13Z" fill="currentColor" />
</svg>
